<mxfile host="app.diagrams.net" modified="2024-04-11T22:55:31.389Z" agent="Mozilla/5.0 (Windows NT 10.0; Win64; x64) AppleWebKit/537.36 (KHTML, like Gecko) Chrome/123.0.0.0 Safari/537.36" etag="xwGJvF25wD90tiBFVwvH" version="24.2.3" type="device">
  <diagram name="PÃ¡gina-1" id="_a1uhKOgoMHV7UZ4VY9R">
    <mxGraphModel dx="1114" dy="610" grid="1" gridSize="10" guides="1" tooltips="1" connect="1" arrows="1" fold="1" page="1" pageScale="1" pageWidth="827" pageHeight="1169" math="0" shadow="0">
      <root>
        <mxCell id="0" />
        <mxCell id="1" parent="0" />
        <mxCell id="RE8Pwqm5nBQz_yacbl6Q-1" value="Cliente" style="shape=umlActor;verticalLabelPosition=bottom;verticalAlign=top;html=1;outlineConnect=0;" vertex="1" parent="1">
          <mxGeometry x="100" y="190" width="46.67" height="70" as="geometry" />
        </mxCell>
        <mxCell id="RE8Pwqm5nBQz_yacbl6Q-4" value="Deposito" style="ellipse;whiteSpace=wrap;html=1;fillColor=#fff2cc;strokeColor=#d6b656;" vertex="1" parent="1">
          <mxGeometry x="490" y="60" width="120" height="80" as="geometry" />
        </mxCell>
        <mxCell id="RE8Pwqm5nBQz_yacbl6Q-5" value="Saque" style="ellipse;whiteSpace=wrap;html=1;fillColor=#fff2cc;strokeColor=#d6b656;" vertex="1" parent="1">
          <mxGeometry x="490" y="320" width="120" height="80" as="geometry" />
        </mxCell>
        <mxCell id="RE8Pwqm5nBQz_yacbl6Q-6" value="LOGIN" style="ellipse;whiteSpace=wrap;html=1;fillColor=#fff2cc;strokeColor=#d6b656;" vertex="1" parent="1">
          <mxGeometry x="250" y="170" width="120" height="80" as="geometry" />
        </mxCell>
        <mxCell id="RE8Pwqm5nBQz_yacbl6Q-7" value="" style="endArrow=none;html=1;rounded=0;entryX=0.033;entryY=0.713;entryDx=0;entryDy=0;entryPerimeter=0;exitX=0.5;exitY=0.5;exitDx=0;exitDy=0;exitPerimeter=0;" edge="1" parent="1" source="RE8Pwqm5nBQz_yacbl6Q-1" target="RE8Pwqm5nBQz_yacbl6Q-6">
          <mxGeometry width="50" height="50" relative="1" as="geometry">
            <mxPoint x="150" y="230" as="sourcePoint" />
            <mxPoint x="230" y="230" as="targetPoint" />
          </mxGeometry>
        </mxCell>
        <mxCell id="RE8Pwqm5nBQz_yacbl6Q-13" value="&amp;lt;&amp;lt;extend&amp;gt;&amp;gt;" style="html=1;verticalAlign=bottom;labelBackgroundColor=none;endArrow=open;endFill=0;dashed=1;rounded=0;entryX=-0.033;entryY=0.625;entryDx=0;entryDy=0;entryPerimeter=0;" edge="1" parent="1">
          <mxGeometry x="0.1838" y="31" width="160" relative="1" as="geometry">
            <mxPoint x="310" y="250" as="sourcePoint" />
            <mxPoint x="516.04" y="370" as="targetPoint" />
            <mxPoint as="offset" />
          </mxGeometry>
        </mxCell>
        <mxCell id="RE8Pwqm5nBQz_yacbl6Q-14" value="&amp;lt;&amp;lt;extend&amp;gt;&amp;gt;" style="html=1;verticalAlign=bottom;labelBackgroundColor=none;endArrow=open;endFill=0;dashed=1;rounded=0;exitX=0.775;exitY=0.1;exitDx=0;exitDy=0;exitPerimeter=0;" edge="1" parent="1" source="RE8Pwqm5nBQz_yacbl6Q-6" target="RE8Pwqm5nBQz_yacbl6Q-4">
          <mxGeometry x="0.076" y="18" width="160" relative="1" as="geometry">
            <mxPoint x="330" y="150" as="sourcePoint" />
            <mxPoint x="490" y="150" as="targetPoint" />
            <mxPoint as="offset" />
          </mxGeometry>
        </mxCell>
      </root>
    </mxGraphModel>
  </diagram>
</mxfile>
